<?xml version="1.0" encoding="UTF-8"?>
<svg width="294px" height="67px" viewBox="0 0 294 67" version="1.1" xmlns="http://www.w3.org/2000/svg" xmlns:xlink="http://www.w3.org/1999/xlink">
    <title>tabEQ</title>
    <g id="tabEQ" stroke="none" stroke-width="1" fill="none" fill-rule="evenodd">
        <path d="M197.21875,45 L197.21875,36.875 L167.96875,36.875 C166.885417,36.875 166.0625,36.59375 165.5,36.03125 C164.9375,35.46875 164.65625,34.65625 164.65625,33.59375 L164.65625,33.59375 L164.65625,8.3125 L197.21875,8.3125 L197.21875,0.1875 L160.625,0.1875 C160.041667,0.1875 159.5,0.291666667 159,0.5 C158.5,0.708333333 158.067708,1 157.703125,1.375 C157.338542,1.75 157.052083,2.1875 156.84375,2.6875 C156.635417,3.1875 156.53125,3.71875 156.53125,4.28125 L156.53125,4.28125 L156.53125,33.59375 C156.53125,35.6979167 156.911458,37.4739583 157.671875,38.921875 C158.432292,40.3697917 159.380208,41.546875 160.515625,42.453125 C161.651042,43.359375 162.885417,44.0104167 164.21875,44.40625 C165.552083,44.8020833 166.78125,45 167.90625,45 L167.90625,45 L197.21875,45 Z M193.5625,26.6875 L193.5625,18.5 L167.90625,18.5 L167.90625,26.6875 L193.5625,26.6875 Z M246.5,51.90625 L237,44.375 C238.75,43.7291667 240.338542,42.84375 241.765625,41.71875 C243.192708,40.59375 244.411458,39.28125 245.421875,37.78125 C246.432292,36.28125 247.213542,34.609375 247.765625,32.765625 C248.317708,30.921875 248.59375,28.9583333 248.59375,26.875 L248.59375,26.875 L248.59375,18.3125 C248.59375,15.6041667 248.125,13.0989583 247.1875,10.796875 C246.25,8.49479167 244.947917,6.515625 243.28125,4.859375 C241.614583,3.203125 239.640625,1.90625 237.359375,0.96875 C235.078125,0.03125 232.59375,-0.4375 229.90625,-0.4375 L229.90625,-0.4375 L218.90625,-0.4375 C216.21875,-0.4375 213.729167,0.03125 211.4375,0.96875 C209.145833,1.90625 207.166667,3.203125 205.5,4.859375 C203.833333,6.515625 202.526042,8.49479167 201.578125,10.796875 C200.630208,13.0989583 200.15625,15.6041667 200.15625,18.3125 L200.15625,18.3125 L200.15625,26.875 C200.15625,29.6041667 200.630208,32.1145833 201.578125,34.40625 C202.526042,36.6979167 203.833333,38.6770833 205.5,40.34375 C207.166667,42.0104167 209.145833,43.3072917 211.4375,44.234375 C213.729167,45.1614583 216.21875,45.625 218.90625,45.625 L218.90625,45.625 L226.90625,45.625 L234.71875,51.90625 L246.5,51.90625 Z M229.84375,37.5 L218.90625,37.5 C217.322917,37.5 215.880208,37.2447917 214.578125,36.734375 C213.276042,36.2239583 212.15625,35.5052083 211.21875,34.578125 C210.28125,33.6510417 209.557292,32.5364583 209.046875,31.234375 C208.536458,29.9322917 208.28125,28.4791667 208.28125,26.875 L208.28125,26.875 L208.28125,18.3125 C208.28125,16.7083333 208.536458,15.2552083 209.046875,13.953125 C209.557292,12.6510417 210.28125,11.5364583 211.21875,10.609375 C212.15625,9.68229167 213.276042,8.96354167 214.578125,8.453125 C215.880208,7.94270833 217.322917,7.6875 218.90625,7.6875 L218.90625,7.6875 L229.90625,7.6875 C231.46875,7.6875 232.901042,7.94270833 234.203125,8.453125 C235.505208,8.96354167 236.619792,9.68229167 237.546875,10.609375 C238.473958,11.5364583 239.192708,12.6510417 239.703125,13.953125 C240.213542,15.2552083 240.46875,16.7083333 240.46875,18.3125 L240.46875,18.3125 L240.46875,26.875 C240.46875,28.4791667 240.213542,29.9322917 239.703125,31.234375 C239.192708,32.5364583 238.46875,33.6510417 237.53125,34.578125 C236.59375,35.5052083 235.473958,36.2239583 234.171875,36.734375 C232.869792,37.2447917 231.427083,37.5 229.84375,37.5 L229.84375,37.5 Z" id="EQ" fill="#00BCFF" fill-rule="nonzero"></path>
        <path d="M37.0810235,45 L37.0810235,14.7085077 L55,14.7085077 L55,8 L11,8 L11,14.7085077 L28.9502488,14.7085077 L28.9502488,45 L37.0810235,45 Z M64.1589958,45 L64.1589958,35.9177127 L92.8410042,35.9177127 L92.8410042,45 L101,45 L101,11.3800558 C101,10.9156206 100.895397,10.4769874 100.686192,10.0641562 C100.476987,9.65132497 100.1841,9.29009763 99.8075314,8.9804742 C99.4309623,8.67085077 98.9916318,8.43003254 98.4895397,8.25801953 C97.9874477,8.08600651 97.4539749,8 96.8891213,8 L96.8891213,8 L78.5,8 C75.2573222,8 72.2656904,8.4558345 69.5251046,9.36750349 C66.7845188,10.2791725 64.4100418,11.5520688 62.4016736,13.1861925 C60.3933054,14.8203161 58.8242678,16.7726639 57.6945607,19.0432357 C56.5648536,21.3138075 56,23.7993956 56,26.5 L56,26.5 L56,45 L64.1589958,45 Z M93,29 L64,29 L64,26.3843416 C64,24.57414 64.3225748,23.0338078 64.9677243,21.7633452 C65.6128738,20.4928826 66.432531,19.4341637 67.4266958,18.5871886 C68.4208607,17.7402135 69.5102115,17.0759193 70.6947484,16.594306 C71.8792852,16.1126928 73.0056528,15.7556346 74.0738512,15.5231317 C75.1420496,15.2906287 76.0833333,15.1453144 76.8977024,15.0871886 C77.7120715,15.0290629 78.2461707,15 78.5,15 L78.5,15 L93,15 L93,29 Z M142.108165,45 C143.929518,45 145.468248,44.7290795 146.724355,44.1872385 C147.980461,43.6453975 149.001047,42.9702464 149.786113,42.1617852 C150.571179,41.353324 151.136427,40.4760576 151.481856,39.5299861 C151.827285,38.5839145 152,37.6980474 152,36.8723849 L152,36.8723849 L152,35.5822873 C152,34.2749884 151.822052,33.0794979 151.466155,31.9958159 C151.110258,30.9121339 150.628751,29.9402603 150.021633,29.0801953 C149.414515,28.2201302 148.707955,27.4632729 147.901954,26.8096234 C147.095953,26.155974 146.23238,25.5969317 145.311235,25.1324965 C146.378925,23.9112041 147.153524,22.6168061 147.635031,21.2493026 C148.116539,19.8817992 148.357292,18.6046025 148.357292,17.4177127 L148.357292,17.4177127 L148.357292,16.153417 C148.357292,14.6569038 148.027565,13.3926081 147.368109,12.36053 C146.708653,11.3284519 145.881717,10.4898884 144.887299,9.84483961 C143.892882,9.19979079 142.819958,8.73105532 141.668528,8.43863319 C140.517097,8.14621106 139.438939,8 138.434054,8 L138.434054,8 L111.113747,8 C110.527565,8 109.983252,8.08600651 109.480809,8.25801953 C108.978367,8.43003254 108.543964,8.67085077 108.177599,8.9804742 C107.811235,9.29009763 107.523378,9.65132497 107.314027,10.0641562 C107.104676,10.4769874 107,10.9156206 107,11.3800558 L107,11.3800558 L107,41.6199442 C107,42.1015807 107.104676,42.5488145 107.314027,42.9616457 C107.523378,43.374477 107.811235,43.731404 108.177599,44.0324268 C108.543964,44.3334496 108.978367,44.5699675 109.480809,44.7419805 C109.983252,44.9139935 110.527565,45 111.113747,45 L111.113747,45 L142.108165,45 Z M142.253012,38 L115,38 L115,15 L138.536692,15 C139.680175,15 140.251917,15.4697301 140.251917,16.4091904 L140.251917,16.4091904 L140.251917,17.6422319 C140.251917,18.4978118 140.087806,19.2653173 139.759584,19.9447484 C139.431362,20.6241794 138.960204,21.2071481 138.346112,21.6936543 C137.732019,22.1801605 136.990873,22.5534282 136.122673,22.8134573 C135.254472,23.0734865 134.280394,23.2035011 133.200438,23.2035011 L133.200438,23.2035011 L118.303395,23.2035011 L118.303395,29.7964989 L136.916758,29.7964989 C137.996714,29.7964989 138.970792,29.9265135 139.838992,30.1865427 C140.707192,30.4465718 141.448339,30.8198395 142.062432,31.3063457 C142.676524,31.7928519 143.152976,32.3758206 143.491785,33.0552516 C143.830595,33.7346827 144,34.5021882 144,35.3577681 L144,35.3577681 L144,36.5656455 C144,36.9179431 143.936473,37.1947484 143.809419,37.3960613 C143.682366,37.5973742 143.534137,37.7399708 143.364732,37.8238512 C143.195327,37.9077316 143.004746,37.9580598 142.79299,37.9748359 C142.581234,37.991612 142.401241,38 142.253012,38 L142.253012,38 Z" id="TAB" fill="#00BCFF" fill-rule="nonzero"></path>
        <polyline id="Path" stroke="#00BCFF" stroke-width="8" points="-0.013560686 55.2870859 245.390211 55.2870859 277.74472 28.8860876 294.093163 28.8860876"></polyline>
    </g>
</svg>