<?xml version="1.0" encoding="UTF-8"?>
<svg width="294px" height="67px" viewBox="0 0 294 67" version="1.1" xmlns="http://www.w3.org/2000/svg" xmlns:xlink="http://www.w3.org/1999/xlink">
    <title>tabEQ</title>
    <g id="tabEQ" stroke="none" stroke-width="1" fill="none" fill-rule="evenodd">
        <path d="M37.3125,45 L37.3125,8.3125 L55.21875,8.3125 L55.21875,0.1875 L11.25,0.1875 L11.25,8.3125 L29.1875,8.3125 L29.1875,45 L37.3125,45 Z M63.90625,45 L63.90625,34 L92.46875,34 L92.46875,45 L100.59375,45 L100.59375,4.28125 C100.59375,3.71875 100.489583,3.1875 100.28125,2.6875 C100.072917,2.1875 99.78125,1.75 99.40625,1.375 C99.03125,1 98.59375,0.708333333 98.09375,0.5 C97.59375,0.291666667 97.0625,0.1875 96.5,0.1875 L96.5,0.1875 L78.1875,0.1875 C74.9583333,0.1875 71.9791667,0.739583333 69.25,1.84375 C66.5208333,2.94791667 64.15625,4.48958333 62.15625,6.46875 C60.15625,8.44791667 58.59375,10.8125 57.46875,13.5625 C56.34375,16.3125 55.78125,19.3229167 55.78125,22.59375 L55.78125,22.59375 L55.78125,45 L63.90625,45 Z M92.46875,25.875 L63.90625,25.875 L63.90625,22.59375 C63.90625,20.3229167 64.2239583,18.390625 64.859375,16.796875 C65.4947917,15.203125 66.3020833,13.875 67.28125,12.8125 C68.2604167,11.75 69.3333333,10.9166667 70.5,10.3125 C71.6666667,9.70833333 72.7760417,9.26041667 73.828125,8.96875 C74.8802083,8.67708333 75.8072917,8.49479167 76.609375,8.421875 C77.4114583,8.34895833 77.9375,8.3125 78.1875,8.3125 L78.1875,8.3125 L92.46875,8.3125 L92.46875,25.875 Z M141.90625,45 C143.71875,45 145.25,44.671875 146.5,44.015625 C147.75,43.359375 148.765625,42.5416667 149.546875,41.5625 C150.328125,40.5833333 150.890625,39.5208333 151.234375,38.375 C151.578125,37.2291667 151.75,36.15625 151.75,35.15625 L151.75,35.15625 L151.75,33.59375 C151.75,32.0104167 151.572917,30.5625 151.21875,29.25 C150.864583,27.9375 150.385417,26.7604167 149.78125,25.71875 C149.177083,24.6770833 148.473958,23.7604167 147.671875,22.96875 C146.869792,22.1770833 146.010417,21.5 145.09375,20.9375 C146.15625,19.4583333 146.927083,17.890625 147.40625,16.234375 C147.885417,14.578125 148.125,13.03125 148.125,11.59375 L148.125,11.59375 L148.125,10.0625 C148.125,8.25 147.796875,6.71875 147.140625,5.46875 C146.484375,4.21875 145.661458,3.203125 144.671875,2.421875 C143.682292,1.640625 142.614583,1.07291667 141.46875,0.71875 C140.322917,0.364583333 139.25,0.1875 138.25,0.1875 L138.25,0.1875 L111.0625,0.1875 C110.479167,0.1875 109.9375,0.291666667 109.4375,0.5 C108.9375,0.708333333 108.505208,1 108.140625,1.375 C107.776042,1.75 107.489583,2.1875 107.28125,2.6875 C107.072917,3.1875 106.96875,3.71875 106.96875,4.28125 L106.96875,4.28125 L106.96875,40.90625 C106.96875,41.4895833 107.072917,42.03125 107.28125,42.53125 C107.489583,43.03125 107.776042,43.4635417 108.140625,43.828125 C108.505208,44.1927083 108.9375,44.4791667 109.4375,44.6875 C109.9375,44.8958333 110.479167,45 111.0625,45 L111.0625,45 L141.90625,45 Z M141.90625,36.875 L115.09375,36.875 L115.09375,8.3125 L138.25,8.3125 C139.375,8.3125 139.9375,8.89583333 139.9375,10.0625 L139.9375,10.0625 L139.9375,11.59375 C139.9375,12.65625 139.776042,13.609375 139.453125,14.453125 C139.130208,15.296875 138.666667,16.0208333 138.0625,16.625 C137.458333,17.2291667 136.729167,17.6927083 135.875,18.015625 C135.020833,18.3385417 134.0625,18.5 133,18.5 L133,18.5 L118.34375,18.5 L118.34375,26.6875 L136.65625,26.6875 C137.71875,26.6875 138.677083,26.8489583 139.53125,27.171875 C140.385417,27.4947917 141.114583,27.9583333 141.71875,28.5625 C142.322917,29.1666667 142.791667,29.890625 143.125,30.734375 C143.458333,31.578125 143.625,32.53125 143.625,33.59375 L143.625,33.59375 L143.625,35.09375 C143.625,35.53125 143.5625,35.875 143.4375,36.125 C143.3125,36.375 143.166667,36.5520833 143,36.65625 C142.833333,36.7604167 142.645833,36.8229167 142.4375,36.84375 C142.229167,36.8645833 142.052083,36.875 141.90625,36.875 L141.90625,36.875 Z M196.3125,45 L196.3125,36.875 L167.0625,36.875 C165.979167,36.875 165.15625,36.59375 164.59375,36.03125 C164.03125,35.46875 163.75,34.65625 163.75,33.59375 L163.75,33.59375 L163.75,8.3125 L196.3125,8.3125 L196.3125,0.1875 L159.71875,0.1875 C159.135417,0.1875 158.59375,0.291666667 158.09375,0.5 C157.59375,0.708333333 157.161458,1 156.796875,1.375 C156.432292,1.75 156.145833,2.1875 155.9375,2.6875 C155.729167,3.1875 155.625,3.71875 155.625,4.28125 L155.625,4.28125 L155.625,33.59375 C155.625,35.6979167 156.005208,37.4739583 156.765625,38.921875 C157.526042,40.3697917 158.473958,41.546875 159.609375,42.453125 C160.744792,43.359375 161.979167,44.0104167 163.3125,44.40625 C164.645833,44.8020833 165.875,45 167,45 L167,45 L196.3125,45 Z M192.65625,26.6875 L192.65625,18.5 L167,18.5 L167,26.6875 L192.65625,26.6875 Z M245.59375,51.90625 L236.09375,44.375 C237.84375,43.7291667 239.432292,42.84375 240.859375,41.71875 C242.286458,40.59375 243.505208,39.28125 244.515625,37.78125 C245.526042,36.28125 246.307292,34.609375 246.859375,32.765625 C247.411458,30.921875 247.6875,28.9583333 247.6875,26.875 L247.6875,26.875 L247.6875,18.3125 C247.6875,15.6041667 247.21875,13.0989583 246.28125,10.796875 C245.34375,8.49479167 244.041667,6.515625 242.375,4.859375 C240.708333,3.203125 238.734375,1.90625 236.453125,0.96875 C234.171875,0.03125 231.6875,-0.4375 229,-0.4375 L229,-0.4375 L218,-0.4375 C215.3125,-0.4375 212.822917,0.03125 210.53125,0.96875 C208.239583,1.90625 206.260417,3.203125 204.59375,4.859375 C202.927083,6.515625 201.619792,8.49479167 200.671875,10.796875 C199.723958,13.0989583 199.25,15.6041667 199.25,18.3125 L199.25,18.3125 L199.25,26.875 C199.25,29.6041667 199.723958,32.1145833 200.671875,34.40625 C201.619792,36.6979167 202.927083,38.6770833 204.59375,40.34375 C206.260417,42.0104167 208.239583,43.3072917 210.53125,44.234375 C212.822917,45.1614583 215.3125,45.625 218,45.625 L218,45.625 L226,45.625 L233.8125,51.90625 L245.59375,51.90625 Z M228.9375,37.5 L218,37.5 C216.416667,37.5 214.973958,37.2447917 213.671875,36.734375 C212.369792,36.2239583 211.25,35.5052083 210.3125,34.578125 C209.375,33.6510417 208.651042,32.5364583 208.140625,31.234375 C207.630208,29.9322917 207.375,28.4791667 207.375,26.875 L207.375,26.875 L207.375,18.3125 C207.375,16.7083333 207.630208,15.2552083 208.140625,13.953125 C208.651042,12.6510417 209.375,11.5364583 210.3125,10.609375 C211.25,9.68229167 212.369792,8.96354167 213.671875,8.453125 C214.973958,7.94270833 216.416667,7.6875 218,7.6875 L218,7.6875 L229,7.6875 C230.5625,7.6875 231.994792,7.94270833 233.296875,8.453125 C234.598958,8.96354167 235.713542,9.68229167 236.640625,10.609375 C237.567708,11.5364583 238.286458,12.6510417 238.796875,13.953125 C239.307292,15.2552083 239.5625,16.7083333 239.5625,18.3125 L239.5625,18.3125 L239.5625,26.875 C239.5625,28.4791667 239.307292,29.9322917 238.796875,31.234375 C238.286458,32.5364583 237.5625,33.6510417 236.625,34.578125 C235.6875,35.5052083 234.567708,36.2239583 233.265625,36.734375 C231.963542,37.2447917 230.520833,37.5 228.9375,37.5 L228.9375,37.5 Z" id="TABEQ" fill="#00BCFF" fill-rule="nonzero"></path>
        <polyline id="Path" stroke="#00BCFF" stroke-width="8" points="-0.013560686 55.2870859 245.390211 55.2870859 277.74472 28.8860876 294.093163 28.8860876"></polyline>
    </g>
</svg>